- 
http://www.Speed.Cd 
       
http://www.Speed.Cd       the fast  and The Hottest Private Tracker on the net

Please Seed back to make the speed Faster!!!

and don't forget to visit      ...... http://www.Speed.Cd..........
-[size=3]SCRN[/size]

Drive Angry DVDRip XviD-SCR0N

RELEASE DATE....: 14/05/2011
THEATRE DATE....: 2011
iMDB URL........: http://www.imdb.com/title/tt1502404/
iMDB RATiNG.....: 6.1/10 6,160 votes
GENRE...........: Action | Fantasy | Thriller 
SOURCE..........: DEFACED
BiTRATE.........: 1786 Kbps
AUDiO 1.........: ENG 5.1ch
RUNTiME ........: 104 min
SUBTiTLES.......: N/A
FilE SiZE.......: 1,63G
Encoder.........: [size=3]SCRN Team[/size]
Notes..............THANKS TO:All the p2p groups .....
   General
      Complete name : Drive Angry DVDRip XviD-SCR0N.avi
      Format : AVI
      Format/Info : Audio Video Interleave
      Format profile : OpenDML
      File size : 1.63 GiB
      Duration : 1h 44mn
      Overall bit rate : 2 239 Kbps
      Writing application : AVI-Mux GUI 1.17.8.3, Feb 16 201019:42:50
   Video #0
      ID : 0
      Format : MPEG-4 Visual
      Format profile : AdvancedSimple@L5
      Format settings, BVOP : Yes
      Format settings, QPel : No
      Format settings, GMC : No warppoints
      Format settings, Matrix : Default (H.263)
      Muxing mode : Packed bitstream
      Codec ID : XVID
      Codec ID/Hint : XviD
      Duration : 1h 44mn
      Bit rate : 1 786 Kbps
      Width : 624 pixels
      Height : 352 pixels
      Display aspect ratio : 16:9
      Frame rate : 23.976 fps
      Resolution : 24 bits
      Colorimetry : 4:2:0
      Scan type : Progressive
      Bits/(Pixel*Frame) : 0.339
      Stream size : 1.30 GiB (80%)
      Writing library : XviD 1.3.0.dev55
   Audio #1
      ID : 1
      Format : AC-3
      Format/Info : Audio Coding 3
      Codec ID : 2000
      Duration : 1h 44mn
      Bit rate mode : Constant
      Bit rate : 448 Kbps
      Channel(s) : 6 channels
      Channel positions : Front: L C R, Surround: L R, LFE
      Sampling rate : 48.0 KHz
      Stream size : 335 MiB (20%)
      Alignment : Aligned on interleaves
      Interleave, duration : 64 ms (1.53 video frames)
      Interleave, preload duration : 192 ms

[img]http://img109.imageshack.us/img109/8609/scrn1o.jpg[/img]
[img]http://img27.imageshack.us/img27/7736/scrn2m.jpg[/img]
[img]http://img684.imageshack.us/img684/4585/scrn3.jpg[/img]
[img]http://img852.imageshack.us/img852/1214/scrn4.jpg[/img]
[img]http://img845.imageshack.us/img845/5797/scrn5.jpg[/img] 

[img]http://img688.imageshack.us/img688/3995/thumbs20110514185923.jpg[/img]